<svg class="digit" xmlns="http://www.w3.org/2000/svg" viewBox="0 0 100 180"><path class="digit__top" d="M23.19,19.77h54.1L96,2.13A10.24,10.24,0,0,0,89.74,0H10.26A10.27,10.27,0,0,0,4,2.1Z" /><path class="digit__top-left" d="M2.3,3.75A10.16,10.16,0,0,0,0,10.18V79.23A10.18,10.18,0,0,0,5.6,88.3L21.27,76.64V21.26Z" /><path class="digit__top-right" d="M78.73,21.7V76.64L94.4,88.3a10.18,10.18,0,0,0,5.6-9.07V10.18a10.11,10.11,0,0,0-2.28-6.39Z" /><path class="digit__middle" d="M77.15,79.2H22.85L8.39,89.78l14.46,10.58h54.3L91.61,89.78Z" /><path class="digit__bottom-left" d="M2.3,176.24A10.11,10.11,0,0,1,0,169.82v-69A10.18,10.18,0,0,1,5.6,91.7l15.67,11.66v55.38Z" /><path class="digit__bottom-right" d="M78.73,158.3V103.36L94.4,91.7a10.18,10.18,0,0,1,5.6,9.07v69.05a10.11,10.11,0,0,1-2.28,6.39Z" /><path class="digit__bottom" d="M23.19,160.23h54.1L96,177.87A10.24,10.24,0,0,1,89.74,180H10.26A10.27,10.27,0,0,1,4,177.9Z" /></svg>